<?xml version="1.0" encoding="UTF-8"?>
<!DOCTYPE svg PUBLIC "-//W3C//DTD SVG 1.1//EN" "http://www.w3.org/Graphics/SVG/1.1/DTD/svg11.dtd">
<!-- Creator: CorelDRAW 2020 (64-Bit) -->
<svg xmlns="http://www.w3.org/2000/svg" xml:space="preserve" width="2.91663in" height="2.93207in" version="1.1" style="shape-rendering:geometricPrecision; text-rendering:geometricPrecision; image-rendering:optimizeQuality; fill-rule:evenodd; clip-rule:evenodd"
viewBox="0 0 336.56 338.35"
 xmlns:xlink="http://www.w3.org/1999/xlink"
 xmlns:xodm="http://www.corel.com/coreldraw/odm/2003">
 <defs>
  <style type="text/css">
   <![CDATA[
    .fil0 {fill:white}
   ]]>
  </style>
 </defs>
 <g id="Layer_x0020_1">
  <metadata id="CorelCorpID_0Corel-Layer"/>
  <path class="fil0" d="M284.76 254.51c-3.12,-6.98 -6.08,-36.84 -28.25,-52.62 -8.31,-5.92 -17.92,-8.38 -29.26,-9.03 -4.09,3.8 -6.47,5.87 -11.4,9.5l-4.63 3.04c-0.36,0.21 -1.36,0.84 -1.78,1.08l-5.32 2.9c-3.71,2.21 -11.2,4.48 -15.97,5.62 -12.13,2.9 -26.84,2.97 -38.92,0.14 -9.69,-2.27 -13.65,-4.15 -20.98,-8.18 -1.16,-0.64 -0.82,-0.47 -1.75,-1.02l-11.08 -7.79c-2.31,-1.93 -3.8,-3.38 -5.84,-5.3 -4.31,0.68 -9.39,0.78 -13.54,1.83 -24.76,6.25 -34.52,27.88 -41.45,50.45 -0.83,2.71 -0.88,2.87 -1.33,4.86 -0.04,0.16 -0.15,0.63 -0.19,0.79l-0.99 3.71c-23.94,-33.09 -32.53,-72.86 -24.92,-113.42l5.52 -20.33c4.52,-12.38 12.14,-27.62 20.08,-37.66l33.13 -32.36c1.45,-1.06 2.41,-1.77 4.08,-2.86 28.76,-18.76 64.63,-27.91 102.57,-21.51 4.04,0.68 6.85,1.47 10.26,2.17 16.57,3.39 34.84,13.07 47.37,21.85l10.24 7.6c5.64,4.37 9.18,7.79 13.78,13.41 2.16,2.63 3.89,3.53 6.02,6.5l3.52 4.84c5.8,7.11 7.53,10.67 12.08,19.26 4.11,7.77 10.49,22.64 12.25,31.77 3.32,17.21 5.52,25.61 3.86,47.13 -2.18,28.28 -12.41,53.13 -27.18,73.61zm-126.28 -193.46c-27.97,4 -51.71,24.02 -59.31,51.04l-2.53 13.97c-0.91,11.35 -1.41,3.1 0.36,16.76l3.3 14.61c0.03,0.09 0.1,0.27 0.13,0.36l5.29 11.03c4.03,6.85 10.74,15.6 16.78,20.17 3.36,2.54 6.33,4.96 10.62,7.45 13.31,7.74 29.45,10.73 44.93,8.48 33.79,-4.92 58.68,-31.12 62.09,-64.51 1.59,-15.52 0.64,-3.46 -0.07,-16.63 -0.99,-18.21 -13.06,-35.18 -25.26,-46.6 -12.1,-11.32 -33.89,-19.35 -56.31,-16.15zm128.28 -13c-4.43,-2.3 -4.87,-4.26 -8.37,-7.28l-0.77 -0.63c-0.12,-0.09 -0.28,-0.21 -0.4,-0.31l-15.82 -11.99c-9.55,-5.8 -20.16,-11.71 -30.32,-16.01l-11.2 -3.89c-1.64,-0.66 -1.18,-0.49 -2.75,-0.94 -1.06,-0.31 -2.06,-0.64 -3.38,-1.02 -7.51,-2.15 -23.51,-5.89 -32.21,-5.99 -1.69,1 -13.86,-0.05 -17.68,0 -15.6,0.19 -33.11,2.53 -46.48,7.76l-41.07 19.55c-1.08,0.66 0.01,-0.08 -1.24,0.85l-4.41 3.21c-0.5,0.31 -1.27,0.75 -1.74,1.07 -0.31,0.22 -1.14,0.89 -1.55,1.22 -15.11,12.09 -26.35,22.98 -38.11,40.56 -14.29,21.35 -19.14,36.01 -26.01,62.36 -4.19,16.05 -3.91,41.97 -1.58,55.75l1.88 11.02c0.02,0.11 0.06,0.31 0.09,0.43 6.01,24.67 16.6,48.1 31.42,68.45 2.39,3.28 6.07,8.15 8.68,10.83l30.04 26.29c4.45,3.33 9.14,5.68 14.06,8.31l19.25 9.44c0.09,0.04 0.29,0.13 0.38,0.17l5.75 1.84c18.83,7.66 40.47,9.58 60.43,9.19 14.13,-0.27 29.59,-2.12 42.61,-6.77 3.14,-1.12 8.69,-2.12 11.4,-3.64 0.08,-0.04 0.25,-0.16 0.33,-0.2l3.72 -1.29c5.39,-1.83 18.4,-9.56 24.4,-12.79 2.18,-1.18 1.05,-0.55 2.98,-1.9 2.13,-1.5 3.95,-2.69 6.33,-4.13l6.84 -5.02c0.16,-0.12 0.64,-0.47 0.8,-0.59 0.11,-0.09 0.28,-0.21 0.39,-0.3 31.14,-25.1 52.5,-60.92 60.34,-100.89 0.02,-0.11 0.07,-0.32 0.09,-0.43l1.84 -13.25c0.92,-5.57 0.82,-11.36 0.85,-17.23l-2.14 -28.66c-5.92,-31.71 -18.81,-57.81 -38.48,-82.49 -2.05,-2.58 -1.91,-2.56 -4.68,-5.07 -1.51,-1.36 -3.88,-3.76 -4.49,-5.59z"/>
 </g>
</svg>
